<mxfile host="app.diagrams.net" modified="2024-02-09T19:54:07.019Z" agent="Mozilla/5.0 (Windows NT 10.0; Win64; x64) AppleWebKit/537.36 (KHTML, like Gecko) Chrome/120.0.0.0 Safari/537.36" etag="o6XJg8e1KYHHJHzcZ-p6" version="23.1.1" type="github">
  <diagram name="第 1 页" id="ZwoE_WwPUw46SmpHsKBS">
    <mxGraphModel dx="2074" dy="3478" grid="1" gridSize="10" guides="1" tooltips="1" connect="1" arrows="1" fold="1" page="1" pageScale="1" pageWidth="827" pageHeight="1169" math="0" shadow="0">
      <root>
        <mxCell id="0" />
        <mxCell id="1" parent="0" />
        <mxCell id="OZIjP0hqgHMFIoGAycNw-27" value="" style="edgeStyle=orthogonalEdgeStyle;rounded=0;orthogonalLoop=1;jettySize=auto;html=1;entryX=0;entryY=0.5;entryDx=0;entryDy=0;" edge="1" parent="1" source="OZIjP0hqgHMFIoGAycNw-2" target="OZIjP0hqgHMFIoGAycNw-6">
          <mxGeometry relative="1" as="geometry">
            <mxPoint x="230" y="-1510" as="targetPoint" />
            <Array as="points">
              <mxPoint x="290" y="-1675" />
              <mxPoint x="290" y="-1508" />
            </Array>
          </mxGeometry>
        </mxCell>
        <mxCell id="OZIjP0hqgHMFIoGAycNw-2" value="choose a player" style="rounded=1;whiteSpace=wrap;html=1;shadow=0;comic=0;labelBackgroundColor=none;strokeWidth=1;fontFamily=Verdana;fontSize=12;align=center;arcSize=50;" vertex="1" parent="1">
          <mxGeometry x="322.11" y="-1700" width="142.5" height="50" as="geometry" />
        </mxCell>
        <mxCell id="OZIjP0hqgHMFIoGAycNw-3" value="" style="edgeStyle=orthogonalEdgeStyle;rounded=0;orthogonalLoop=1;jettySize=auto;html=1;entryX=0.5;entryY=0;entryDx=0;entryDy=0;" edge="1" parent="1" source="OZIjP0hqgHMFIoGAycNw-4" target="OZIjP0hqgHMFIoGAycNw-9">
          <mxGeometry relative="1" as="geometry">
            <mxPoint x="342.25" y="-1930" as="targetPoint" />
          </mxGeometry>
        </mxCell>
        <mxCell id="OZIjP0hqgHMFIoGAycNw-4" value="" style="ellipse;whiteSpace=wrap;html=1;rounded=0;shadow=0;comic=0;labelBackgroundColor=none;strokeWidth=1;fillColor=#000000;fontFamily=Verdana;fontSize=12;align=center;" vertex="1" parent="1">
          <mxGeometry x="373.36" y="-2000" width="40" height="40" as="geometry" />
        </mxCell>
        <mxCell id="OZIjP0hqgHMFIoGAycNw-24" value="" style="edgeStyle=orthogonalEdgeStyle;rounded=0;orthogonalLoop=1;jettySize=auto;html=1;" edge="1" parent="1" source="OZIjP0hqgHMFIoGAycNw-6" target="OZIjP0hqgHMFIoGAycNw-7">
          <mxGeometry relative="1" as="geometry" />
        </mxCell>
        <mxCell id="OZIjP0hqgHMFIoGAycNw-6" value="go back to main menu" style="rounded=1;whiteSpace=wrap;html=1;shadow=0;comic=0;labelBackgroundColor=none;strokeWidth=1;fontFamily=Verdana;fontSize=12;align=center;arcSize=50;" vertex="1" parent="1">
          <mxGeometry x="334.49" y="-1530" width="117.75" height="43" as="geometry" />
        </mxCell>
        <mxCell id="OZIjP0hqgHMFIoGAycNw-7" value="" style="shape=mxgraph.bpmn.shape;html=1;verticalLabelPosition=bottom;labelBackgroundColor=#ffffff;verticalAlign=top;perimeter=ellipsePerimeter;outline=end;symbol=terminate;rounded=0;shadow=0;comic=0;strokeWidth=1;fontFamily=Verdana;fontSize=12;align=center;" vertex="1" parent="1">
          <mxGeometry x="373.36" y="-1450" width="40" height="40" as="geometry" />
        </mxCell>
        <mxCell id="OZIjP0hqgHMFIoGAycNw-16" value="" style="edgeStyle=orthogonalEdgeStyle;rounded=0;orthogonalLoop=1;jettySize=auto;html=1;" edge="1" parent="1" source="OZIjP0hqgHMFIoGAycNw-9" target="OZIjP0hqgHMFIoGAycNw-10">
          <mxGeometry relative="1" as="geometry" />
        </mxCell>
        <mxCell id="OZIjP0hqgHMFIoGAycNw-9" value="implicitly enter the hardcode password for tracking mode on main menu" style="rounded=1;whiteSpace=wrap;html=1;shadow=0;comic=0;labelBackgroundColor=none;strokeWidth=1;fontFamily=Verdana;fontSize=12;align=center;arcSize=50;" vertex="1" parent="1">
          <mxGeometry x="285.75" y="-1930" width="215.25" height="80" as="geometry" />
        </mxCell>
        <mxCell id="OZIjP0hqgHMFIoGAycNw-18" value="" style="edgeStyle=orthogonalEdgeStyle;rounded=0;orthogonalLoop=1;jettySize=auto;html=1;entryX=1;entryY=0.5;entryDx=0;entryDy=0;" edge="1" parent="1" source="OZIjP0hqgHMFIoGAycNw-10" target="OZIjP0hqgHMFIoGAycNw-9">
          <mxGeometry relative="1" as="geometry">
            <mxPoint x="513.5" y="-1780" as="targetPoint" />
            <Array as="points">
              <mxPoint x="550" y="-1780" />
              <mxPoint x="550" y="-1890" />
            </Array>
          </mxGeometry>
        </mxCell>
        <mxCell id="OZIjP0hqgHMFIoGAycNw-19" value="incorrect password" style="edgeLabel;html=1;align=center;verticalAlign=middle;resizable=0;points=[];" vertex="1" connectable="0" parent="OZIjP0hqgHMFIoGAycNw-18">
          <mxGeometry x="0.2139" y="3" relative="1" as="geometry">
            <mxPoint x="-57" y="41" as="offset" />
          </mxGeometry>
        </mxCell>
        <mxCell id="OZIjP0hqgHMFIoGAycNw-22" value="" style="edgeStyle=orthogonalEdgeStyle;rounded=0;orthogonalLoop=1;jettySize=auto;html=1;" edge="1" parent="1" source="OZIjP0hqgHMFIoGAycNw-10" target="OZIjP0hqgHMFIoGAycNw-2">
          <mxGeometry relative="1" as="geometry" />
        </mxCell>
        <mxCell id="OZIjP0hqgHMFIoGAycNw-23" value="correct password" style="edgeLabel;html=1;align=center;verticalAlign=middle;resizable=0;points=[];" vertex="1" connectable="0" parent="OZIjP0hqgHMFIoGAycNw-22">
          <mxGeometry x="-0.4514" y="-1" relative="1" as="geometry">
            <mxPoint x="48" y="9" as="offset" />
          </mxGeometry>
        </mxCell>
        <mxCell id="OZIjP0hqgHMFIoGAycNw-10" value="" style="rhombus;whiteSpace=wrap;html=1;" vertex="1" parent="1">
          <mxGeometry x="353.5" y="-1820" width="80" height="80" as="geometry" />
        </mxCell>
        <mxCell id="OZIjP0hqgHMFIoGAycNw-25" value="" style="edgeStyle=orthogonalEdgeStyle;rounded=0;orthogonalLoop=1;jettySize=auto;html=1;" edge="1" parent="1" source="OZIjP0hqgHMFIoGAycNw-13" target="OZIjP0hqgHMFIoGAycNw-6">
          <mxGeometry relative="1" as="geometry" />
        </mxCell>
        <mxCell id="OZIjP0hqgHMFIoGAycNw-31" value="" style="edgeStyle=orthogonalEdgeStyle;rounded=0;orthogonalLoop=1;jettySize=auto;html=1;entryX=1;entryY=0.5;entryDx=0;entryDy=0;" edge="1" parent="1" source="OZIjP0hqgHMFIoGAycNw-13" target="OZIjP0hqgHMFIoGAycNw-2">
          <mxGeometry relative="1" as="geometry">
            <mxPoint x="576" y="-1595" as="targetPoint" />
            <Array as="points">
              <mxPoint x="530" y="-1595" />
              <mxPoint x="530" y="-1675" />
            </Array>
          </mxGeometry>
        </mxCell>
        <mxCell id="OZIjP0hqgHMFIoGAycNw-13" value="check this player&#39;s progression" style="rounded=1;whiteSpace=wrap;html=1;shadow=0;comic=0;labelBackgroundColor=none;strokeWidth=1;fontFamily=Verdana;fontSize=12;align=center;arcSize=50;" vertex="1" parent="1">
          <mxGeometry x="322.25" y="-1620" width="142.5" height="50" as="geometry" />
        </mxCell>
      </root>
    </mxGraphModel>
  </diagram>
</mxfile>
